<svg xmlns="http://www.w3.org/2000/svg" enable-background="new 0 0 512 512" viewBox="0 0 512 512"><path fill="#231f20" d="M291.4,244.8h78c7.6,0,13.8-6.1,13.8-13.8c0-7.6-6.2-13.8-13.8-13.8h-78c-7.6,0-13.8,6.2-13.8,13.8
		C277.6,238.6,283.8,244.8,291.4,244.8z"/><path fill="#231f20" d="M435.5,158.7H201.7l-38-40.1c-3.3-3.4-7.7-5.4-12.4-5.4l-133.9-1c-4.7,0.1-8.9,1.8-12.2,5s-5.1,7.6-5.1,12.2
		L0,439.1c0,4.6,1.8,9,5,12.2c3.3,3.2,7.6,5,12.2,5h418.1c9.5,0,17.2-7.7,17.3-17.3l0.1-263.1c0-4.6-1.8-9-5-12.2
		C444.4,160.5,440.1,158.7,435.5,158.7z M418.1,421.9H34.4l-0.1-275.1l109.3,0.8l38.1,40.2c3.3,3.5,7.8,5.4,12.5,5.4h224
		L418.1,421.9z"/><path fill="#231f20" d="M507,106.4c-3.2-3.2-7.6-5-12.2-5H261l-38-40.1c-3.2-3.4-7.7-5.3-12.4-5.4l-133.9-1h-0.1
		c-4.5,0-8.9,1.8-12.1,5c-3.3,3.2-5.1,7.6-5.1,12.2V99h34.4v-9.5l109.3,0.8l38.1,40.2c3.3,3.4,7.8,5.4,12.5,5.4h224l-0.1,228.7h-14
		V399h31.2c9.5,0,17.2-7.7,17.2-17.2l0.1-263.2C512,114,510.2,109.6,507,106.4z"/></svg>